<?xml version="1.0" encoding="UTF-8" standalone="no"?><!-- Generator: Gravit.io --><svg xmlns="http://www.w3.org/2000/svg" xmlns:xlink="http://www.w3.org/1999/xlink" style="isolation:isolate" viewBox="720 649 640.05 511.961" width="640.05pt" height="511.961pt"><path d=" M 998.925 1160.463 L 937.925 1142.763 C 931.525 1140.963 927.925 1134.263 929.725 1127.863 L 1066.225 657.663 C 1068.025 651.263 1074.725 647.663 1081.125 649.463 L 1142.125 667.163 C 1148.525 668.963 1152.125 675.663 1150.325 682.063 L 1013.825 1152.263 C 1011.925 1158.663 1005.325 1162.363 998.925 1160.463 L 998.925 1160.463 Z  M 884.925 1048.263 L 928.425 1001.863 C 933.025 996.963 932.725 989.163 927.625 984.663 L 837.025 904.963 L 927.625 825.263 C 932.725 820.763 933.125 812.963 928.425 808.063 L 884.925 761.663 C 880.425 756.863 872.825 756.563 867.925 761.163 L 723.825 896.163 C 718.725 900.863 718.725 908.963 723.825 913.663 L 867.925 1048.763 C 872.825 1053.363 880.425 1053.163 884.925 1048.263 L 884.925 1048.263 Z  M 1212.125 1048.863 L 1356.225 913.763 C 1361.325 909.063 1361.325 900.963 1356.225 896.263 L 1212.125 761.063 C 1207.325 756.563 1199.725 756.763 1195.125 761.563 L 1151.625 807.963 C 1147.025 812.863 1147.325 820.663 1152.425 825.163 L 1243.025 904.963 L 1152.425 984.663 C 1147.325 989.163 1146.925 996.963 1151.625 1001.863 L 1195.125 1048.263 C 1199.625 1053.163 1207.225 1053.363 1212.125 1048.863 L 1212.125 1048.863 Z " fill="rgb(255,255,255)"/></svg>